 ßß ßßßßßßßßßßßßßßßßßßßßßßßßßßßßßßßßßßßßßßßßßßßßßßßßßßßßßßßßßßßßßßßßßßßß ßß    
                   °°±±²²ÛÛÛÛÛ Movie Info    ÛÛÛÛÛÛ²²±±°°                       
 Ü ÜÜÜÜÜÜÜÜÜÜÜÜÜÜÜÜÜÜÜÜÜÜÜÜÜÜÜÜÜÜÜÜÜÜÜÜÜÜÜÜÜÜÜÜÜÜÜÜÜÜÜÜÜÜÜÜÜÜÜÜÜÜÜÜÜÜÜÜÜÜÜÜ Ü   
                                                                                
      GENRE.........: Action | Adventure | Comedy                                                                             
      IMDB RATING...: 5.7/10                                                                                           
      LINK..........: http://www.imdb.com/title/tt0373051/
                                                                          
  ßß ßßßßßßßßßßßßßßßßßßßßßßßßßßßßßßßßßßßßßßßßßßßßßßßßßßßßßßßßßßßßßßßßßßßß ßß    
                   °°±±²²ÛÛÛÛÛ    Plot       ÛÛÛÛÛÛ²²±±°°                       
 Ü ÜÜÜÜÜÜÜÜÜÜÜÜÜÜÜÜÜÜÜÜÜÜÜÜÜÜÜÜÜÜÜÜÜÜÜÜÜÜÜÜÜÜÜÜÜÜÜÜÜÜÜÜÜÜÜÜÜÜÜÜÜÜÜÜÜÜÜÜÜÜÜÜ Ü  
  
	On a quest to find out what happened to his missing brother, a scientist, 
	his nephew and their mountain guide discover a fantastic and dangerous lost 
	world in the center of the earth.
 
	 
	Stars:
 	Brendan Fraser, Josh Hutcherson and Anita Briem 

                                                                             
                                                                          
  ßß ßßßßßßßßßßßßßßßßßßßßßßßßßßßßßßßßßßßßßßßßßßßßßßßßßßßßßßßßßßßßßßßßßßßß ßß    
                   °°±±²²ÛÛÛÛÛ Release Info  ÛÛÛÛÛÛ²²±±°°                       
 Ü ÜÜÜÜÜÜÜÜÜÜÜÜÜÜÜÜÜÜÜÜÜÜÜÜÜÜÜÜÜÜÜÜÜÜÜÜÜÜÜÜÜÜÜÜÜÜÜÜÜÜÜÜÜÜÜÜÜÜÜÜÜÜÜÜÜÜÜÜÜÜÜÜ Ü   
                                                                                


Format                           : Matroska
Format version                   : Version 2
File size                        : 8.05 GiB
Duration                         : 1h 32mn
Overall bit rate                 : 12.4 Mbps
Encoded date                     : UTC 2012-01-18 16:52:47
Writing application              : DVDFab
Writing library                  : libebml v0.7.8 + libmatroska v0.8.1

Video
ID                               : 1
Format                           : AVC
Format/Info                      : Advanced Video Codec
Format profile                   : High@L5.1
Format settings, CABAC           : Yes
Format settings, ReFrames        : 2 frames
Codec ID                         : V_MPEG4/ISO/AVC
Duration                         : 1h 32mn
Bit rate                         : 11.8 Mbps
Width                            : 1 920 pixels
Height                           : 1 080 pixels
Display aspect ratio             : 16:9
Frame rate                       : 23.976 fps
Color space                      : YUV
Chroma subsampling               : 4:2:0
Bit depth                        : 8 bits
Scan type                        : Progressive
Bits/(Pixel*Frame)               : 0.236
Stream size                      : 7.60 GiB (94%)
Writing library                  : x264 core
Default                          : Yes
Forced                           : No


Audio
ID                               : 2
Format                           : AC-3
Format/Info                      : Audio Coding 3
Mode extension                   : CM (complete main)
Codec ID                         : A_AC3
Duration                         : 1h 32mn
Bit rate mode                    : Constant
Bit rate                         : 448 Kbps
Channel(s)                       : 6 channels
Channel positions                : Front: L C R, Side: L R, LFE
Sampling rate                    : 48.0 KHz
Bit depth                        : 16 bits
Compression mode                 : Lossy
Stream size                      : 297 MiB (4%)
Default                          : Yes
Forced                           : No






